<svg xmlns="http://www.w3.org/2000/svg" xmlns:xlink="http://www.w3.org/1999/xlink" viewBox="0 0 300 300" xml:space="preserve" style="width: 30px; height: 30px;">
<g transform="matrix(0.99 0 0 0.98 242.75 179.47)"  >
<line style="stroke: rgb(0,0,0); stroke-width: 25; stroke-dasharray: none; stroke-linecap: butt; stroke-dashoffset: 0; stroke-linejoin: miter; stroke-miterlimit: 4; fill: rgb(0,0,0); fill-rule: nonzero; opacity: 1;" x1="18.5" y1="-69" x2="-18.5" y2="69" />
</g>
<g transform="matrix(1.1 0 0 1 149.19 237.33)"  >
<line style="stroke: rgb(0,0,0); stroke-width: 25; stroke-dasharray: none; stroke-linecap: butt; stroke-dashoffset: 0; stroke-linejoin: miter; stroke-miterlimit: 4; fill: rgb(0,0,0); fill-rule: nonzero; opacity: 1;" x1="79.5" y1="0.5" x2="-79.5" y2="-0.5" />
</g>
<g transform="matrix(2.47 0 0 1 148.56 103.28)"  >
<line style="stroke: rgb(0,0,0); stroke-width: 25; stroke-dasharray: none; stroke-linecap: butt; stroke-dashoffset: 0; stroke-linejoin: miter; stroke-miterlimit: 4; fill: rgb(0,0,0); fill-rule: nonzero; opacity: 1;" x1="-50" y1="0" x2="50" y2="0" />
</g>
<g transform="matrix(1 0 0 1.38 84.5 71.01)"  >
<line style="stroke: rgb(0,0,0); stroke-width: 25; stroke-dasharray: none; stroke-linecap: butt; stroke-dashoffset: 0; stroke-linejoin: miter; stroke-miterlimit: 4; fill: rgb(0,0,0); fill-rule: nonzero; opacity: 1;"  x1="-25" y1="23.5" x2="25" y2="-23.5" />
</g>
<g transform="matrix(-1 0 0 1.38 215.17 71.01)"  >
<line style="stroke: rgb(0,0,0); stroke-width: 25; stroke-dasharray: none; stroke-linecap: butt; stroke-dashoffset: 0; stroke-linejoin: miter; stroke-miterlimit: 4; fill: rgb(0,0,0); fill-rule: nonzero; opacity: 1;"  x1="-25" y1="23.5" x2="25" y2="-23.5" />
</g>
<g transform="matrix(0.99 0 0 -0.98 54.69 179.2)"  >
<line style="stroke: rgb(0,0,0); stroke-width: 25; stroke-dasharray: none; stroke-linecap: butt; stroke-dashoffset: 0; stroke-linejoin: miter; stroke-miterlimit: 4; fill: rgb(0,0,0); fill-rule: nonzero; opacity: 1;"  x1="18.5" y1="-69" x2="-18.5" y2="69" />
</g>
<g transform="matrix(1 0 0 1.55 146.83 170.83)"  >
<line style="stroke: rgb(0,0,0); stroke-width: 15; stroke-dasharray: none; stroke-linecap: butt; stroke-dashoffset: 0; stroke-linejoin: miter; stroke-miterlimit: 4; fill: rgb(0,0,0); fill-rule: nonzero; opacity: 1;" x1="0" y1="-28.761471141480612" x2="0" y2="28.761471141480612" />
</g>
<g transform="matrix(1 0 0 1.33 192.5 172.11)"  >
<line style="stroke: rgb(0,0,0); stroke-width: 15; stroke-dasharray: none; stroke-linecap: butt; stroke-dashoffset: 0; stroke-linejoin: miter; stroke-miterlimit: 4; fill: rgb(0,0,0); fill-rule: nonzero; opacity: 1;"  x1="0" y1="-28.761471141480612" x2="0" y2="28.761471141480612" />
</g>
<g transform="matrix(1 0 0 1.33 102.83 173.25)"  >
<line style="stroke: rgb(0,0,0); stroke-width: 15; stroke-dasharray: none; stroke-linecap: butt; stroke-dashoffset: 0; stroke-linejoin: miter; stroke-miterlimit: 4; fill: rgb(0,0,0); fill-rule: nonzero; opacity: 1;"  x1="0" y1="-28.761471141480612" x2="0" y2="28.761471141480612" />
</g>
</svg>